<?xml version="1.0" encoding="utf-8"?>
<!-- Generator: Adobe Illustrator 26.2.1, SVG Export Plug-In . SVG Version: 6.00 Build 0)  -->
<svg version="1.1" id="Layer_1" xmlns="http://www.w3.org/2000/svg" xmlns:xlink="http://www.w3.org/1999/xlink" x="0px" y="0px"
	 viewBox="0 0 105.7 106.4" style="enable-background:new 0 0 105.7 106.4;" xml:space="preserve">
<style type="text/css">
	.st0{fill:#353535;}
	.st1{clip-path:url(#SVGID_00000038406888789482260910000012920113042217301890_);}
	.st2{fill:#B22233;}
	.st3{fill:#FFFFFF;}
	.st4{fill:#005BBB;}
	.st5{fill:#FFFFFF;stroke:#000000;stroke-miterlimit:10;}
	.st6{fill:#8E8E8E;}
</style>
<g id="a">
	<circle class="st0" cx="52.9" cy="53.5" r="52.9"/>
</g>
<g id="b">
	<g>
		<defs>
			<circle id="SVGID_1_" cx="53.2" cy="53.5" r="41.6"/>
		</defs>
		<clipPath id="SVGID_00000018223640770283451870000016623950449957616305_">
			<use xlink:href="#SVGID_1_"  style="overflow:visible;"/>
		</clipPath>
		<g style="clip-path:url(#SVGID_00000018223640770283451870000016623950449957616305_);">
			<g id="d">
				<g id="e">
					<rect x="49.3" y="11.6" class="st2" width="38.7" height="6.9"/>
					<rect x="49.3" y="24.9" class="st2" width="42.3" height="7.4"/>
					<rect x="49.3" y="38.3" class="st2" width="45.6" height="7.4"/>
					<rect x="5.7" y="65.6" class="st2" width="89.1" height="7.4"/>
					<rect x="49.3" y="52.6" class="st2" width="45.6" height="7.4"/>
				</g>
				<g id="f">
					<rect x="5.7" y="17.5" class="st3" width="89.1" height="7.4"/>
					<rect x="5.7" y="31.3" class="st3" width="89.1" height="7.4"/>
					<rect x="5.7" y="45.7" class="st3" width="89.1" height="7.4"/>
					<rect x="5.7" y="60.1" class="st3" width="89.1" height="7.4"/>
				</g>
				<rect id="g" x="-1" y="10.4" class="st4" width="51.2" height="48.5"/>
				<g id="h">
					<polyline class="st3" points="44.4,13.7 43.7,15.3 41.8,15.5 43.4,16.6 42.8,18.5 44.3,17.4 45.9,18.5 45.3,16.7 46.9,15.6 
						45.1,15.4 					"/>
					<polyline class="st3" points="44.4,23.1 43.7,24.8 41.8,24.9 43.4,26.1 42.8,27.9 44.3,26.8 45.9,27.9 45.3,26.2 46.9,25 
						45.1,24.9 					"/>
					<polyline class="st3" points="44.4,32.6 43.7,34.2 41.8,34.4 43.4,35.5 42.8,37.4 44.3,36.3 45.9,37.4 45.3,35.6 46.9,34.5 
						45.1,34.3 					"/>
					<polyline class="st3" points="33.3,13.7 32.7,15.3 30.8,15.5 32.3,16.6 31.8,18.5 33.2,17.4 34.9,18.5 34.2,16.7 35.9,15.6 
						34,15.4 					"/>
					<polyline class="st3" points="33.3,23.1 32.7,24.8 30.8,24.9 32.3,26.1 31.8,27.9 33.2,26.8 34.9,27.9 34.2,26.2 35.9,25 
						34,24.9 					"/>
					<polyline class="st3" points="33.3,32.6 32.7,34.2 30.8,34.4 32.3,35.5 31.8,37.4 33.2,36.3 34.9,37.4 34.2,35.6 35.9,34.5 
						34,34.3 					"/>
					<polyline class="st3" points="16.6,37.3 16,38.9 14,39.1 15.6,40.2 15,42.1 16.5,41 18.1,42.1 17.5,40.3 19.2,39.2 17.3,39 
											"/>
					<polyline class="st3" points="16.6,46.7 16,48.4 14,48.5 15.6,49.7 15,51.5 16.5,50.4 18.1,51.5 17.5,49.8 19.2,48.6 
						17.3,48.5 					"/>
					<polyline class="st3" points="22.1,42 21.5,43.7 19.5,43.8 21.1,45 20.5,46.8 22,45.7 23.6,46.8 23,45 24.7,43.9 22.8,43.8 
											"/>
					<polyline class="st3" points="22.1,51.5 21.5,53.1 19.5,53.2 21.1,54.4 20.5,56.3 22,55.1 23.6,56.3 23,54.5 24.7,53.4 
						22.8,53.2 					"/>
					<polyline class="st3" points="10.9,42 10.2,43.7 8.3,43.8 9.9,45 9.3,46.8 10.8,45.7 12.4,46.8 11.8,45 13.4,43.9 11.6,43.8 
											"/>
					<polyline class="st3" points="10.9,51.5 10.2,53.1 8.3,53.2 9.9,54.4 9.3,56.3 10.8,55.1 12.4,56.3 11.8,54.5 13.4,53.4 
						11.6,53.2 					"/>
					<polyline class="st3" points="33,42 32.4,43.7 30.5,43.8 32,45 31.5,46.8 32.9,45.7 34.6,46.8 33.9,45 35.6,43.9 33.7,43.8 
											"/>
					<polyline class="st3" points="33,51.5 32.4,53.1 30.5,53.2 32,54.4 31.5,56.3 32.9,55.1 34.6,56.3 33.9,54.5 35.6,53.4 
						33.7,53.2 					"/>
					<polyline class="st3" points="38.9,18.4 38.2,20 36.3,20.2 37.8,21.3 37.3,23.2 38.8,22.1 40.4,23.2 39.7,21.4 41.4,20.3 
						39.6,20.1 					"/>
					<polyline class="st3" points="22.1,23.1 21.5,24.8 19.5,24.9 21.1,26.1 20.5,27.9 22,26.8 23.6,27.9 23,26.2 24.7,25 
						22.8,24.9 					"/>
					<polyline class="st3" points="17,27.8 16.3,29.5 14.4,29.6 15.9,30.8 15.4,32.7 16.9,31.5 18.5,32.7 17.8,30.9 19.5,29.7 
						17.7,29.6 					"/>
					<polyline class="st3" points="38.9,27.8 38.2,29.5 36.3,29.6 37.8,30.8 37.3,32.7 38.8,31.5 40.4,32.7 39.7,30.9 41.4,29.7 
						39.6,29.6 					"/>
					<polyline class="st3" points="38.9,37.3 38.2,38.9 36.3,39.1 37.8,40.2 37.3,42.1 38.8,41 40.4,42.1 39.7,40.3 41.4,39.2 
						39.6,39 					"/>
					<polyline class="st3" points="27.9,18.4 27.3,20 25.3,20.2 26.9,21.3 26.4,23.2 27.8,22.1 29.5,23.2 28.8,21.4 30.5,20.3 
						28.6,20.1 					"/>
					<polyline class="st3" points="27.9,27.8 27.3,29.5 25.3,29.6 26.9,30.8 26.4,32.7 27.8,31.5 29.5,32.7 28.8,30.9 30.5,29.7 
						28.6,29.6 					"/>
					<polyline class="st3" points="27.9,37.3 27.3,38.9 25.3,39.1 26.9,40.2 26.4,42.1 27.8,41 29.5,42.1 28.8,40.3 30.5,39.2 
						28.6,39 					"/>
				</g>
			</g>
			<ellipse class="st5" cx="53.5" cy="53.1" rx="45.2" ry="43.6"/>
		</g>
	</g>
</g>
<g id="i">
	<g id="j">
		<path id="k" class="st3" d="M96,67.9c-2.4,0.8-6.7-2.8-6.7-2.8c-1.7-5.8-33.1-21.5-35.8-22.8v-0.1l-0.1,0l-0.1,0v0.1
			c-2.6,1.3-34,17.1-35.8,22.8c0,0-4.4,3.6-6.7,2.8c0,0,16.9,28.3,42.5,28.5l0,0c0,0,0.1,0,0.1,0c0,0,0.1,0,0.1,0l0,0
			C79.2,96.2,96,67.9,96,67.9L96,67.9z"/>
		<polyline id="l" class="st3" points="32.4,46.2 30.1,37.6 21.6,34.5 21.6,42.7 28.8,50.6 		"/>
		<polyline id="m" class="st3" points="74.7,46.5 77.1,37.8 85.5,34.7 85.5,43 78.3,50.8 		"/>
		<path id="n" class="st6" d="M80.4,50.6c11.2-6.2,6.1-18.4,6.1-18.4c-9.9,1.4-12.3,8.8-12.9,11.8c-10.5-8.1-20-7.1-20-7.1
			S44,36,33.5,44.1c-0.6-2.9-3-10.4-12.9-11.8c0,0-5.1,12.2,6.1,18.4c-3.2,3.7-6.2,8.4-9,14.4c0,0,15.8-14.2,27.5-12.3
			c3,0.4,5.6,4.8,0.5,18.3c0,0,4.5-1.1,7.9-1.1s7.9,1.1,7.9,1.1c-5.1-13.4-2.5-17.9,0.5-18.3c11.7-1.9,27.5,12.3,27.5,12.3
			C86.7,59.1,83.6,54.3,80.4,50.6L80.4,50.6z M23.3,36.9c7,2.5,7.3,7.5,7.1,9.8c-0.6,0.6-1.3,1.2-1.9,1.9
			C20.5,44.7,23.3,36.9,23.3,36.9L23.3,36.9z M83.7,36.9c0,0,2.8,7.8-5.1,11.7c-0.7-0.7-1.3-1.3-2-2C76.4,44.3,76.8,39.3,83.7,36.9z
			"/>
		<ellipse id="o" cx="53.5" cy="75.1" rx="10.5" ry="4.1"/>
		<path id="p" d="M66.2,58.3c-5,2.5,0.4,11.2,0.4,11.2S82.8,70.8,82.4,83c0,0,5.4-4.2,7.6-10.5C90,72.5,74.7,53.7,66.2,58.3
			L66.2,58.3z M71.3,67.9c-1.9,0-3.4-1.5-3.4-3.4s1.5-3.4,3.4-3.4c1.9,0,3.4,1.5,3.4,3.4S73.2,67.9,71.3,67.9z"/>
		<path id="q" d="M17.1,72.5c2.2,6.3,7.6,10.5,7.6,10.5c-0.4-12.3,15.8-13.6,15.8-13.6s5.4-8.6,0.5-11.2
			C32.4,53.6,17.1,72.5,17.1,72.5L17.1,72.5z M32.4,64.5c0-1.9,1.5-3.4,3.4-3.4s3.4,1.5,3.4,3.4s-1.5,3.4-3.4,3.4
			S32.4,66.4,32.4,64.5z"/>
	</g>
</g>
</svg>
